<mxfile host="Electron" agent="Mozilla/5.0 (Windows NT 10.0; Win64; x64) AppleWebKit/537.36 (KHTML, like Gecko) draw.io/24.7.8 Chrome/128.0.6613.36 Electron/32.0.1 Safari/537.36" version="24.7.8">
  <diagram name="PÃ¡gina-1" id="iYpZ2JMIRZRR-KVIziiy">
    <mxGraphModel dx="2380" dy="1930" grid="1" gridSize="10" guides="1" tooltips="1" connect="1" arrows="1" fold="1" page="1" pageScale="1" pageWidth="827" pageHeight="1169" math="0" shadow="0">
      <root>
        <mxCell id="0" />
        <mxCell id="1" parent="0" />
        <mxCell id="jPVxcf8T9hYOkQwiWEO3-146" value="Usuario" style="whiteSpace=wrap;html=1;align=center;" parent="1" vertex="1">
          <mxGeometry x="-70" y="105" width="120" height="70" as="geometry" />
        </mxCell>
        <mxCell id="jPVxcf8T9hYOkQwiWEO3-157" value="ID_Usuario" style="ellipse;whiteSpace=wrap;html=1;align=center;" parent="1" vertex="1">
          <mxGeometry x="-300" y="95" width="100" height="40" as="geometry" />
        </mxCell>
        <mxCell id="jPVxcf8T9hYOkQwiWEO3-161" value="Trabajador" style="ellipse;whiteSpace=wrap;html=1;align=center;" parent="1" vertex="1">
          <mxGeometry x="-480" y="210" width="100" height="40" as="geometry" />
        </mxCell>
        <mxCell id="jPVxcf8T9hYOkQwiWEO3-162" value="Cliente" style="ellipse;whiteSpace=wrap;html=1;align=center;" parent="1" vertex="1">
          <mxGeometry x="-480" y="150" width="100" height="40" as="geometry" />
        </mxCell>
        <mxCell id="jPVxcf8T9hYOkQwiWEO3-208" value="" style="endArrow=none;html=1;rounded=0;" parent="1" edge="1">
          <mxGeometry relative="1" as="geometry">
            <mxPoint x="-110" y="190" as="sourcePoint" />
            <mxPoint x="-110" y="110" as="targetPoint" />
            <Array as="points" />
          </mxGeometry>
        </mxCell>
        <mxCell id="jPVxcf8T9hYOkQwiWEO3-215" value="" style="endArrow=none;html=1;rounded=0;exitX=1;exitY=0.5;exitDx=0;exitDy=0;" parent="1" edge="1">
          <mxGeometry relative="1" as="geometry">
            <mxPoint x="-200" y="190" as="sourcePoint" />
            <mxPoint x="-110" y="190" as="targetPoint" />
          </mxGeometry>
        </mxCell>
        <mxCell id="jPVxcf8T9hYOkQwiWEO3-216" value="" style="endArrow=none;html=1;rounded=0;exitX=1;exitY=0.5;exitDx=0;exitDy=0;" parent="1" edge="1">
          <mxGeometry relative="1" as="geometry">
            <mxPoint x="-200" y="110" as="sourcePoint" />
            <mxPoint x="-110" y="110" as="targetPoint" />
          </mxGeometry>
        </mxCell>
        <mxCell id="jPVxcf8T9hYOkQwiWEO3-217" value="" style="endArrow=none;html=1;rounded=0;exitX=1;exitY=0.5;exitDx=0;exitDy=0;entryX=0.01;entryY=0.325;entryDx=0;entryDy=0;entryPerimeter=0;" parent="1" source="jPVxcf8T9hYOkQwiWEO3-162" edge="1">
          <mxGeometry relative="1" as="geometry">
            <mxPoint x="-450" y="360" as="sourcePoint" />
            <mxPoint x="-299" y="183" as="targetPoint" />
          </mxGeometry>
        </mxCell>
        <mxCell id="jPVxcf8T9hYOkQwiWEO3-218" value="" style="endArrow=none;html=1;rounded=0;exitX=0.97;exitY=0.7;exitDx=0;exitDy=0;entryX=0.02;entryY=0.675;entryDx=0;entryDy=0;entryPerimeter=0;exitPerimeter=0;" parent="1" source="jPVxcf8T9hYOkQwiWEO3-161" edge="1">
          <mxGeometry relative="1" as="geometry">
            <mxPoint x="-370" y="180" as="sourcePoint" />
            <mxPoint x="-298.00000000000045" y="197" as="targetPoint" />
          </mxGeometry>
        </mxCell>
        <mxCell id="jPVxcf8T9hYOkQwiWEO3-219" value="" style="endArrow=none;html=1;rounded=0;entryX=0;entryY=0.5;entryDx=0;entryDy=0;" parent="1" target="jPVxcf8T9hYOkQwiWEO3-146" edge="1">
          <mxGeometry relative="1" as="geometry">
            <mxPoint x="-110" y="140" as="sourcePoint" />
            <mxPoint x="-30" y="150" as="targetPoint" />
          </mxGeometry>
        </mxCell>
        <mxCell id="jPVxcf8T9hYOkQwiWEO3-220" value="FK_TipoUsuario" style="shape=ext;margin=3;double=1;whiteSpace=wrap;html=1;align=center;" parent="1" vertex="1">
          <mxGeometry x="-300" y="170" width="100" height="40" as="geometry" />
        </mxCell>
        <mxCell id="jPVxcf8T9hYOkQwiWEO3-223" value="Trabajador" style="whiteSpace=wrap;html=1;align=center;" parent="1" vertex="1">
          <mxGeometry x="-60" y="390" width="120" height="70" as="geometry" />
        </mxCell>
        <mxCell id="jPVxcf8T9hYOkQwiWEO3-229" value="FK_Trabajador" style="ellipse;whiteSpace=wrap;html=1;align=center;" parent="1" vertex="1">
          <mxGeometry x="-300" y="355" width="100" height="40" as="geometry" />
        </mxCell>
        <mxCell id="jPVxcf8T9hYOkQwiWEO3-232" value="Calificacion" style="ellipse;whiteSpace=wrap;html=1;align=center;" parent="1" vertex="1">
          <mxGeometry x="-300" y="455" width="100" height="40" as="geometry" />
        </mxCell>
        <mxCell id="jPVxcf8T9hYOkQwiWEO3-234" value="" style="endArrow=none;html=1;rounded=0;" parent="1" edge="1">
          <mxGeometry relative="1" as="geometry">
            <mxPoint x="-120" y="475" as="sourcePoint" />
            <mxPoint x="-120" y="375" as="targetPoint" />
          </mxGeometry>
        </mxCell>
        <mxCell id="jPVxcf8T9hYOkQwiWEO3-235" value="" style="endArrow=none;html=1;rounded=0;exitX=1;exitY=0.5;exitDx=0;exitDy=0;" parent="1" edge="1">
          <mxGeometry relative="1" as="geometry">
            <mxPoint x="-200" y="374.38" as="sourcePoint" />
            <mxPoint x="-120" y="374.38" as="targetPoint" />
          </mxGeometry>
        </mxCell>
        <mxCell id="jPVxcf8T9hYOkQwiWEO3-237" value="" style="endArrow=none;html=1;rounded=0;exitX=1;exitY=0.5;exitDx=0;exitDy=0;" parent="1" edge="1">
          <mxGeometry relative="1" as="geometry">
            <mxPoint x="-200" y="473.75" as="sourcePoint" />
            <mxPoint x="-120" y="473.75" as="targetPoint" />
          </mxGeometry>
        </mxCell>
        <mxCell id="jPVxcf8T9hYOkQwiWEO3-239" value="" style="endArrow=none;html=1;rounded=0;exitX=0;exitY=0.5;exitDx=0;exitDy=0;" parent="1" source="jPVxcf8T9hYOkQwiWEO3-223" edge="1">
          <mxGeometry relative="1" as="geometry">
            <mxPoint x="-190" y="434.38" as="sourcePoint" />
            <mxPoint x="-120" y="425" as="targetPoint" />
          </mxGeometry>
        </mxCell>
        <mxCell id="jPVxcf8T9hYOkQwiWEO3-250" value="" style="endArrow=none;html=1;rounded=0;entryX=0.869;entryY=1.031;entryDx=0;entryDy=0;entryPerimeter=0;" parent="1" edge="1" target="jPVxcf8T9hYOkQwiWEO3-146">
          <mxGeometry relative="1" as="geometry">
            <mxPoint x="34" y="250" as="sourcePoint" />
            <mxPoint y="180" as="targetPoint" />
            <Array as="points" />
          </mxGeometry>
        </mxCell>
        <mxCell id="jPVxcf8T9hYOkQwiWEO3-251" value="Se convierte" style="shape=rhombus;perimeter=rhombusPerimeter;whiteSpace=wrap;html=1;align=center;" parent="1" vertex="1">
          <mxGeometry x="-30" y="250" width="120" height="60" as="geometry" />
        </mxCell>
        <mxCell id="jPVxcf8T9hYOkQwiWEO3-252" value="" style="endArrow=none;html=1;rounded=0;entryX=0.5;entryY=1;entryDx=0;entryDy=0;exitX=0.75;exitY=0;exitDx=0;exitDy=0;" parent="1" source="jPVxcf8T9hYOkQwiWEO3-223" target="jPVxcf8T9hYOkQwiWEO3-251" edge="1">
          <mxGeometry relative="1" as="geometry">
            <mxPoint x="-110" y="90" as="sourcePoint" />
            <mxPoint x="50" y="90" as="targetPoint" />
          </mxGeometry>
        </mxCell>
        <mxCell id="jPVxcf8T9hYOkQwiWEO3-254" value="1:1" style="text;html=1;align=center;verticalAlign=middle;resizable=0;points=[];autosize=1;strokeColor=none;fillColor=none;" parent="1" vertex="1">
          <mxGeometry x="-20" y="230" width="40" height="30" as="geometry" />
        </mxCell>
        <mxCell id="jPVxcf8T9hYOkQwiWEO3-255" value="servicio" style="whiteSpace=wrap;html=1;align=center;" parent="1" vertex="1">
          <mxGeometry x="978" y="498" width="100" height="40" as="geometry" />
        </mxCell>
        <mxCell id="jPVxcf8T9hYOkQwiWEO3-258" value="PK_Servicio" style="ellipse;whiteSpace=wrap;html=1;align=center;" parent="1" vertex="1">
          <mxGeometry x="977" y="618" width="100" height="40" as="geometry" />
        </mxCell>
        <mxCell id="jPVxcf8T9hYOkQwiWEO3-268" value="" style="endArrow=none;html=1;rounded=0;entryX=0.5;entryY=0;entryDx=0;entryDy=0;" parent="1" edge="1">
          <mxGeometry relative="1" as="geometry">
            <mxPoint x="1026.38" y="578" as="sourcePoint" />
            <mxPoint x="1026.38" y="618" as="targetPoint" />
          </mxGeometry>
        </mxCell>
        <mxCell id="jPVxcf8T9hYOkQwiWEO3-269" value="" style="endArrow=none;html=1;rounded=0;entryX=0.5;entryY=0;entryDx=0;entryDy=0;" parent="1" edge="1">
          <mxGeometry relative="1" as="geometry">
            <mxPoint x="1026.37" y="538" as="sourcePoint" />
            <mxPoint x="1026.37" y="578" as="targetPoint" />
          </mxGeometry>
        </mxCell>
        <mxCell id="jPVxcf8T9hYOkQwiWEO3-271" value="Calificacion" style="whiteSpace=wrap;html=1;align=center;" parent="1" vertex="1">
          <mxGeometry x="-710" y="410" width="120" height="70" as="geometry" />
        </mxCell>
        <mxCell id="jPVxcf8T9hYOkQwiWEO3-274" value="Comentario" style="ellipse;whiteSpace=wrap;html=1;align=center;" parent="1" vertex="1">
          <mxGeometry x="-914" y="510" width="100" height="40" as="geometry" />
        </mxCell>
        <mxCell id="jPVxcf8T9hYOkQwiWEO3-276" value="FK_Trabajador" style="ellipse;whiteSpace=wrap;html=1;align=center;" parent="1" vertex="1">
          <mxGeometry x="-914" y="455" width="100" height="40" as="geometry" />
        </mxCell>
        <mxCell id="jPVxcf8T9hYOkQwiWEO3-277" value="FK_Usuarop" style="ellipse;whiteSpace=wrap;html=1;align=center;" parent="1" vertex="1">
          <mxGeometry x="-914" y="410" width="100" height="40" as="geometry" />
        </mxCell>
        <mxCell id="jPVxcf8T9hYOkQwiWEO3-278" value="ID_calificacion" style="ellipse;whiteSpace=wrap;html=1;align=center;" parent="1" vertex="1">
          <mxGeometry x="-910" y="310" width="100" height="40" as="geometry" />
        </mxCell>
        <mxCell id="jPVxcf8T9hYOkQwiWEO3-279" value="FK_Asignacion" style="ellipse;whiteSpace=wrap;html=1;align=center;" parent="1" vertex="1">
          <mxGeometry x="-910" y="355" width="100" height="40" as="geometry" />
        </mxCell>
        <mxCell id="jPVxcf8T9hYOkQwiWEO3-292" value="" style="line;strokeWidth=1;rotatable=0;dashed=0;labelPosition=right;align=left;verticalAlign=middle;spacingTop=0;spacingLeft=6;points=[];portConstraint=eastwest;" parent="1" vertex="1">
          <mxGeometry x="-770" y="445" width="60" height="10" as="geometry" />
        </mxCell>
        <mxCell id="jPVxcf8T9hYOkQwiWEO3-293" value="" style="endArrow=none;html=1;rounded=0;" parent="1" edge="1">
          <mxGeometry relative="1" as="geometry">
            <mxPoint x="-774" y="325" as="sourcePoint" />
            <mxPoint x="-774" y="535" as="targetPoint" />
            <Array as="points" />
          </mxGeometry>
        </mxCell>
        <mxCell id="jPVxcf8T9hYOkQwiWEO3-297" value="" style="line;strokeWidth=1;rotatable=0;dashed=0;labelPosition=right;align=left;verticalAlign=middle;spacingTop=0;spacingLeft=6;points=[];portConstraint=eastwest;" parent="1" vertex="1">
          <mxGeometry x="-814" y="470" width="40" height="10" as="geometry" />
        </mxCell>
        <mxCell id="jPVxcf8T9hYOkQwiWEO3-298" value="" style="line;strokeWidth=1;rotatable=0;dashed=0;labelPosition=right;align=left;verticalAlign=middle;spacingTop=0;spacingLeft=6;points=[];portConstraint=eastwest;" parent="1" vertex="1">
          <mxGeometry x="-814" y="524" width="40" height="10" as="geometry" />
        </mxCell>
        <mxCell id="jPVxcf8T9hYOkQwiWEO3-299" value="" style="line;strokeWidth=1;rotatable=0;dashed=0;labelPosition=right;align=left;verticalAlign=middle;spacingTop=0;spacingLeft=6;points=[];portConstraint=eastwest;" parent="1" vertex="1">
          <mxGeometry x="-810" y="370" width="40" height="10" as="geometry" />
        </mxCell>
        <mxCell id="jPVxcf8T9hYOkQwiWEO3-300" value="" style="line;strokeWidth=1;rotatable=0;dashed=0;labelPosition=right;align=left;verticalAlign=middle;spacingTop=0;spacingLeft=6;points=[];portConstraint=eastwest;" parent="1" vertex="1">
          <mxGeometry x="-810" y="425" width="40" height="10" as="geometry" />
        </mxCell>
        <mxCell id="jPVxcf8T9hYOkQwiWEO3-301" value="" style="line;strokeWidth=1;rotatable=0;dashed=0;labelPosition=right;align=left;verticalAlign=middle;spacingTop=0;spacingLeft=6;points=[];portConstraint=eastwest;" parent="1" vertex="1">
          <mxGeometry x="-810" y="320" width="40" height="10" as="geometry" />
        </mxCell>
        <mxCell id="jPVxcf8T9hYOkQwiWEO3-304" value="Notificacion" style="whiteSpace=wrap;html=1;align=center;" parent="1" vertex="1">
          <mxGeometry x="-60" y="-400" width="120" height="70" as="geometry" />
        </mxCell>
        <mxCell id="jPVxcf8T9hYOkQwiWEO3-307" value="" style="endArrow=none;html=1;rounded=0;entryX=0.436;entryY=-0.042;entryDx=0;entryDy=0;entryPerimeter=0;exitX=0.5;exitY=0;exitDx=0;exitDy=0;" parent="1" target="jPVxcf8T9hYOkQwiWEO3-319" edge="1" source="jPVxcf8T9hYOkQwiWEO3-304">
          <mxGeometry relative="1" as="geometry">
            <mxPoint x="14" y="-410" as="sourcePoint" />
            <mxPoint x="318.47" y="-255" as="targetPoint" />
            <Array as="points" />
          </mxGeometry>
        </mxCell>
        <mxCell id="jPVxcf8T9hYOkQwiWEO3-308" value="FK_Usuario" style="ellipse;whiteSpace=wrap;html=1;align=center;" parent="1" vertex="1">
          <mxGeometry x="90.43" y="-539" width="100" height="40" as="geometry" />
        </mxCell>
        <mxCell id="jPVxcf8T9hYOkQwiWEO3-309" value="ID_Noificacion" style="ellipse;whiteSpace=wrap;html=1;align=center;" parent="1" vertex="1">
          <mxGeometry x="-150" y="-540" width="100" height="40" as="geometry" />
        </mxCell>
        <mxCell id="jPVxcf8T9hYOkQwiWEO3-310" value="" style="endArrow=none;html=1;rounded=0;" parent="1" edge="1">
          <mxGeometry relative="1" as="geometry">
            <mxPoint x="143.93" y="-453" as="sourcePoint" />
            <mxPoint x="-126.07" y="-453" as="targetPoint" />
            <Array as="points" />
          </mxGeometry>
        </mxCell>
        <mxCell id="jPVxcf8T9hYOkQwiWEO3-311" value="" style="endArrow=none;html=1;rounded=0;" parent="1" edge="1">
          <mxGeometry relative="1" as="geometry">
            <mxPoint x="-125.59999999999997" y="-447.5" as="sourcePoint" />
            <mxPoint x="-125.57" y="-499" as="targetPoint" />
            <Array as="points" />
          </mxGeometry>
        </mxCell>
        <mxCell id="jPVxcf8T9hYOkQwiWEO3-312" value="" style="endArrow=none;html=1;rounded=0;" parent="1" edge="1">
          <mxGeometry relative="1" as="geometry">
            <mxPoint x="144.43" y="-489" as="sourcePoint" />
            <mxPoint x="143.93" y="-448" as="targetPoint" />
            <Array as="points" />
          </mxGeometry>
        </mxCell>
        <mxCell id="jPVxcf8T9hYOkQwiWEO3-319" value="FK_Mensaje" style="ellipse;whiteSpace=wrap;html=1;align=center;" parent="1" vertex="1">
          <mxGeometry x="-38.57" y="-540" width="100" height="41" as="geometry" />
        </mxCell>
        <mxCell id="jPVxcf8T9hYOkQwiWEO3-321" value="Chat" style="whiteSpace=wrap;html=1;align=center;" parent="1" vertex="1">
          <mxGeometry x="291" y="480" width="120" height="70" as="geometry" />
        </mxCell>
        <mxCell id="jPVxcf8T9hYOkQwiWEO3-322" value="FK_Cliente" style="ellipse;whiteSpace=wrap;html=1;align=center;" parent="1" vertex="1">
          <mxGeometry x="300" y="614" width="100" height="40" as="geometry" />
        </mxCell>
        <mxCell id="jPVxcf8T9hYOkQwiWEO3-323" value="" style="endArrow=none;html=1;rounded=0;entryX=0.5;entryY=0;entryDx=0;entryDy=0;" parent="1" target="jPVxcf8T9hYOkQwiWEO3-322" edge="1">
          <mxGeometry relative="1" as="geometry">
            <mxPoint x="349.47" y="550" as="sourcePoint" />
            <mxPoint x="349.47" y="590" as="targetPoint" />
          </mxGeometry>
        </mxCell>
        <mxCell id="jPVxcf8T9hYOkQwiWEO3-324" value="" style="endArrow=none;html=1;rounded=0;" parent="1" edge="1">
          <mxGeometry relative="1" as="geometry">
            <mxPoint x="210" y="590" as="sourcePoint" />
            <mxPoint x="490" y="590" as="targetPoint" />
          </mxGeometry>
        </mxCell>
        <mxCell id="jPVxcf8T9hYOkQwiWEO3-325" value="ID_chat" style="ellipse;whiteSpace=wrap;html=1;align=center;" parent="1" vertex="1">
          <mxGeometry x="160" y="614" width="100" height="40" as="geometry" />
        </mxCell>
        <mxCell id="jPVxcf8T9hYOkQwiWEO3-326" value="FK_Trabajador" style="ellipse;whiteSpace=wrap;html=1;align=center;" parent="1" vertex="1">
          <mxGeometry x="440" y="614" width="100" height="40" as="geometry" />
        </mxCell>
        <mxCell id="jPVxcf8T9hYOkQwiWEO3-327" value="" style="endArrow=none;html=1;rounded=0;" parent="1" edge="1">
          <mxGeometry relative="1" as="geometry">
            <mxPoint x="210" y="590" as="sourcePoint" />
            <mxPoint x="210" y="615" as="targetPoint" />
          </mxGeometry>
        </mxCell>
        <mxCell id="jPVxcf8T9hYOkQwiWEO3-328" value="" style="endArrow=none;html=1;rounded=0;" parent="1" edge="1">
          <mxGeometry relative="1" as="geometry">
            <mxPoint x="489.47" y="589" as="sourcePoint" />
            <mxPoint x="489.47" y="614" as="targetPoint" />
          </mxGeometry>
        </mxCell>
        <mxCell id="jPVxcf8T9hYOkQwiWEO3-329" value="Mensaje" style="whiteSpace=wrap;html=1;align=center;" parent="1" vertex="1">
          <mxGeometry x="480" y="229" width="120" height="70" as="geometry" />
        </mxCell>
        <mxCell id="jPVxcf8T9hYOkQwiWEO3-331" value="FK_Usuario" style="ellipse;whiteSpace=wrap;html=1;align=center;" parent="1" vertex="1">
          <mxGeometry x="698" y="294" width="100" height="40" as="geometry" />
        </mxCell>
        <mxCell id="jPVxcf8T9hYOkQwiWEO3-332" value="FK_Chat" style="ellipse;whiteSpace=wrap;html=1;align=center;" parent="1" vertex="1">
          <mxGeometry x="698" y="244" width="100" height="40" as="geometry" />
        </mxCell>
        <mxCell id="jPVxcf8T9hYOkQwiWEO3-334" value="ID_Mensaje" style="ellipse;whiteSpace=wrap;html=1;align=center;" parent="1" vertex="1">
          <mxGeometry x="694" y="190" width="100" height="40" as="geometry" />
        </mxCell>
        <mxCell id="jPVxcf8T9hYOkQwiWEO3-335" value="" style="endArrow=none;html=1;rounded=0;entryX=0.016;entryY=0.542;entryDx=0;entryDy=0;entryPerimeter=0;" parent="1" target="jPVxcf8T9hYOkQwiWEO3-336" edge="1">
          <mxGeometry relative="1" as="geometry">
            <mxPoint x="655" y="214" as="sourcePoint" />
            <mxPoint x="654" y="374" as="targetPoint" />
            <Array as="points" />
          </mxGeometry>
        </mxCell>
        <mxCell id="jPVxcf8T9hYOkQwiWEO3-336" value="" style="line;strokeWidth=1;rotatable=0;dashed=0;labelPosition=right;align=left;verticalAlign=middle;spacingTop=0;spacingLeft=6;points=[];portConstraint=eastwest;" parent="1" vertex="1">
          <mxGeometry x="654" y="309" width="40" height="10" as="geometry" />
        </mxCell>
        <mxCell id="jPVxcf8T9hYOkQwiWEO3-338" value="" style="line;strokeWidth=1;rotatable=0;dashed=0;labelPosition=right;align=left;verticalAlign=middle;spacingTop=0;spacingLeft=6;points=[];portConstraint=eastwest;" parent="1" vertex="1">
          <mxGeometry x="654" y="205" width="36" height="10" as="geometry" />
        </mxCell>
        <mxCell id="jPVxcf8T9hYOkQwiWEO3-339" value="" style="line;strokeWidth=1;rotatable=0;dashed=0;labelPosition=right;align=left;verticalAlign=middle;spacingTop=0;spacingLeft=6;points=[];portConstraint=eastwest;" parent="1" vertex="1">
          <mxGeometry x="654" y="259" width="40" height="10" as="geometry" />
        </mxCell>
        <mxCell id="jPVxcf8T9hYOkQwiWEO3-341" value="" style="line;strokeWidth=1;rotatable=0;dashed=0;labelPosition=right;align=left;verticalAlign=middle;spacingTop=0;spacingLeft=6;points=[];portConstraint=eastwest;" parent="1" vertex="1">
          <mxGeometry x="600" y="259" width="60" height="10" as="geometry" />
        </mxCell>
        <mxCell id="jPVxcf8T9hYOkQwiWEO3-343" value="Solicitud_Servicio" style="whiteSpace=wrap;html=1;align=center;" parent="1" vertex="1">
          <mxGeometry x="965.5" y="238" width="120" height="70" as="geometry" />
        </mxCell>
        <mxCell id="jPVxcf8T9hYOkQwiWEO3-344" value="FK_Servicio" style="ellipse;whiteSpace=wrap;html=1;align=center;" parent="1" vertex="1">
          <mxGeometry x="1179" y="305" width="100" height="40" as="geometry" />
        </mxCell>
        <mxCell id="jPVxcf8T9hYOkQwiWEO3-345" value="FK_Usuario" style="ellipse;whiteSpace=wrap;html=1;align=center;" parent="1" vertex="1">
          <mxGeometry x="1170" y="253" width="100" height="40" as="geometry" />
        </mxCell>
        <mxCell id="jPVxcf8T9hYOkQwiWEO3-346" value="ID_Solicitud" style="ellipse;whiteSpace=wrap;html=1;align=center;" parent="1" vertex="1">
          <mxGeometry x="1180" y="200" width="100" height="40" as="geometry" />
        </mxCell>
        <mxCell id="jPVxcf8T9hYOkQwiWEO3-347" value="" style="endArrow=none;html=1;rounded=0;entryX=0.016;entryY=0.542;entryDx=0;entryDy=0;entryPerimeter=0;" parent="1" edge="1">
          <mxGeometry relative="1" as="geometry">
            <mxPoint x="1141.5" y="218" as="sourcePoint" />
            <mxPoint x="1141.6399999999999" y="323.4200000000001" as="targetPoint" />
            <Array as="points" />
          </mxGeometry>
        </mxCell>
        <mxCell id="jPVxcf8T9hYOkQwiWEO3-348" value="" style="line;strokeWidth=1;rotatable=0;dashed=0;labelPosition=right;align=left;verticalAlign=middle;spacingTop=0;spacingLeft=6;points=[];portConstraint=eastwest;" parent="1" vertex="1">
          <mxGeometry x="1139" y="320" width="40" height="10" as="geometry" />
        </mxCell>
        <mxCell id="jPVxcf8T9hYOkQwiWEO3-349" value="" style="line;strokeWidth=1;rotatable=0;dashed=0;labelPosition=right;align=left;verticalAlign=middle;spacingTop=0;spacingLeft=6;points=[];portConstraint=eastwest;" parent="1" vertex="1">
          <mxGeometry x="1139" y="215" width="40" height="10" as="geometry" />
        </mxCell>
        <mxCell id="jPVxcf8T9hYOkQwiWEO3-350" value="" style="line;strokeWidth=1;rotatable=0;dashed=0;labelPosition=right;align=left;verticalAlign=middle;spacingTop=0;spacingLeft=6;points=[];portConstraint=eastwest;" parent="1" vertex="1">
          <mxGeometry x="1139" y="270" width="40" height="10" as="geometry" />
        </mxCell>
        <mxCell id="jPVxcf8T9hYOkQwiWEO3-351" value="" style="line;strokeWidth=1;rotatable=0;dashed=0;labelPosition=right;align=left;verticalAlign=middle;spacingTop=0;spacingLeft=6;points=[];portConstraint=eastwest;" parent="1" vertex="1">
          <mxGeometry x="1087" y="268" width="60" height="10" as="geometry" />
        </mxCell>
        <mxCell id="jPVxcf8T9hYOkQwiWEO3-352" value="Asignacion_servicio" style="whiteSpace=wrap;html=1;align=center;" parent="1" vertex="1">
          <mxGeometry x="129.5" y="710" width="120" height="70" as="geometry" />
        </mxCell>
        <mxCell id="jPVxcf8T9hYOkQwiWEO3-353" value="FK_Trabjador" style="ellipse;whiteSpace=wrap;html=1;align=center;" parent="1" vertex="1">
          <mxGeometry x="29" y="849" width="100" height="40" as="geometry" />
        </mxCell>
        <mxCell id="jPVxcf8T9hYOkQwiWEO3-354" value="FK_Solicitud" style="ellipse;whiteSpace=wrap;html=1;align=center;" parent="1" vertex="1">
          <mxGeometry x="251.5" y="849" width="100" height="40" as="geometry" />
        </mxCell>
        <mxCell id="jPVxcf8T9hYOkQwiWEO3-355" value="ID_Asignacion" style="ellipse;whiteSpace=wrap;html=1;align=center;" parent="1" vertex="1">
          <mxGeometry x="139.5" y="849" width="100" height="40" as="geometry" />
        </mxCell>
        <mxCell id="jPVxcf8T9hYOkQwiWEO3-361" value="Realiza" style="shape=rhombus;perimeter=rhombusPerimeter;whiteSpace=wrap;html=1;align=center;" parent="1" vertex="1">
          <mxGeometry x="715.5" y="5" width="120" height="60" as="geometry" />
        </mxCell>
        <mxCell id="jPVxcf8T9hYOkQwiWEO3-362" value="" style="endArrow=none;html=1;rounded=0;exitX=0;exitY=0.5;exitDx=0;exitDy=0;" parent="1" source="jPVxcf8T9hYOkQwiWEO3-361" edge="1">
          <mxGeometry relative="1" as="geometry">
            <mxPoint x="527.5" y="85.00000000000023" as="sourcePoint" />
            <mxPoint x="20" y="40" as="targetPoint" />
            <Array as="points" />
          </mxGeometry>
        </mxCell>
        <mxCell id="jPVxcf8T9hYOkQwiWEO3-363" value="" style="endArrow=none;html=1;rounded=0;entryX=1;entryY=0.5;entryDx=0;entryDy=0;" parent="1" edge="1">
          <mxGeometry relative="1" as="geometry">
            <mxPoint x="1025.5" y="34.28999999999999" as="sourcePoint" />
            <mxPoint x="835.5" y="34.75999999999999" as="targetPoint" />
            <Array as="points" />
          </mxGeometry>
        </mxCell>
        <mxCell id="jPVxcf8T9hYOkQwiWEO3-364" value="1:M" style="text;html=1;align=center;verticalAlign=middle;resizable=0;points=[];autosize=1;strokeColor=none;fillColor=none;" parent="1" vertex="1">
          <mxGeometry x="715.5" y="-20" width="40" height="30" as="geometry" />
        </mxCell>
        <mxCell id="jPVxcf8T9hYOkQwiWEO3-365" value="Pertenece a" style="shape=rhombus;perimeter=rhombusPerimeter;whiteSpace=wrap;html=1;align=center;" parent="1" vertex="1">
          <mxGeometry x="965.5" y="363" width="120" height="60" as="geometry" />
        </mxCell>
        <mxCell id="jPVxcf8T9hYOkQwiWEO3-367" value="" style="endArrow=none;html=1;rounded=0;entryX=0.5;entryY=1;entryDx=0;entryDy=0;" parent="1" target="jPVxcf8T9hYOkQwiWEO3-365" edge="1">
          <mxGeometry relative="1" as="geometry">
            <mxPoint x="1025.5" y="498" as="sourcePoint" />
            <mxPoint x="1026.47" y="453" as="targetPoint" />
          </mxGeometry>
        </mxCell>
        <mxCell id="jPVxcf8T9hYOkQwiWEO3-368" value="" style="endArrow=none;html=1;rounded=0;entryX=0.598;entryY=0.996;entryDx=0;entryDy=0;entryPerimeter=0;" parent="1" edge="1">
          <mxGeometry relative="1" as="geometry">
            <mxPoint x="1026.5" y="358" as="sourcePoint" />
            <mxPoint x="1026.5" y="308" as="targetPoint" />
            <Array as="points" />
          </mxGeometry>
        </mxCell>
        <mxCell id="jPVxcf8T9hYOkQwiWEO3-370" value="1:M" style="text;html=1;align=center;verticalAlign=middle;resizable=0;points=[];autosize=1;strokeColor=none;fillColor=none;" parent="1" vertex="1">
          <mxGeometry x="945.5" y="343" width="40" height="30" as="geometry" />
        </mxCell>
        <mxCell id="jPVxcf8T9hYOkQwiWEO3-372" value="" style="endArrow=none;html=1;rounded=0;exitX=0.5;exitY=0;exitDx=0;exitDy=0;" parent="1" source="jPVxcf8T9hYOkQwiWEO3-343" edge="1">
          <mxGeometry relative="1" as="geometry">
            <mxPoint x="1029.47" y="376" as="sourcePoint" />
            <mxPoint x="1026" y="40" as="targetPoint" />
            <Array as="points" />
          </mxGeometry>
        </mxCell>
        <mxCell id="jPVxcf8T9hYOkQwiWEO3-373" value="Atiende" style="shape=rhombus;perimeter=rhombusPerimeter;whiteSpace=wrap;html=1;align=center;" parent="1" vertex="1">
          <mxGeometry x="-30" y="524" width="120" height="60" as="geometry" />
        </mxCell>
        <mxCell id="jPVxcf8T9hYOkQwiWEO3-377" value="1:M" style="text;html=1;align=center;verticalAlign=middle;resizable=0;points=[];autosize=1;strokeColor=none;fillColor=none;" parent="1" vertex="1">
          <mxGeometry x="-41.43" y="515" width="40" height="30" as="geometry" />
        </mxCell>
        <mxCell id="jPVxcf8T9hYOkQwiWEO3-378" value="" style="endArrow=none;html=1;rounded=0;entryX=0.5;entryY=1;entryDx=0;entryDy=0;" parent="1" edge="1">
          <mxGeometry relative="1" as="geometry">
            <mxPoint x="188.5" y="850" as="sourcePoint" />
            <mxPoint x="188.97000000000003" y="780" as="targetPoint" />
            <Array as="points">
              <mxPoint x="189" y="845" />
            </Array>
          </mxGeometry>
        </mxCell>
        <mxCell id="jPVxcf8T9hYOkQwiWEO3-379" value="" style="endArrow=none;html=1;rounded=0;" parent="1" edge="1">
          <mxGeometry relative="1" as="geometry">
            <mxPoint x="71.5" y="810" as="sourcePoint" />
            <mxPoint x="311.5" y="810" as="targetPoint" />
          </mxGeometry>
        </mxCell>
        <mxCell id="jPVxcf8T9hYOkQwiWEO3-380" value="" style="endArrow=none;html=1;rounded=0;entryX=0.5;entryY=1;entryDx=0;entryDy=0;" parent="1" edge="1">
          <mxGeometry relative="1" as="geometry">
            <mxPoint x="71.5" y="850" as="sourcePoint" />
            <mxPoint x="71.5" y="809" as="targetPoint" />
            <Array as="points">
              <mxPoint x="71.5" y="839" />
            </Array>
          </mxGeometry>
        </mxCell>
        <mxCell id="jPVxcf8T9hYOkQwiWEO3-381" value="" style="endArrow=none;html=1;rounded=0;entryX=0.5;entryY=1;entryDx=0;entryDy=0;" parent="1" edge="1">
          <mxGeometry relative="1" as="geometry">
            <mxPoint x="311.5" y="850" as="sourcePoint" />
            <mxPoint x="311.5" y="809" as="targetPoint" />
            <Array as="points">
              <mxPoint x="311.5" y="839" />
            </Array>
          </mxGeometry>
        </mxCell>
        <mxCell id="jPVxcf8T9hYOkQwiWEO3-382" value="" style="endArrow=none;html=1;rounded=0;entryX=0.5;entryY=1;entryDx=0;entryDy=0;" parent="1" edge="1">
          <mxGeometry relative="1" as="geometry">
            <mxPoint x="27.57" y="520" as="sourcePoint" />
            <mxPoint x="27.57" y="460" as="targetPoint" />
          </mxGeometry>
        </mxCell>
        <mxCell id="jPVxcf8T9hYOkQwiWEO3-383" value="" style="endArrow=none;html=1;rounded=0;entryX=0.5;entryY=1;entryDx=0;entryDy=0;" parent="1" edge="1">
          <mxGeometry relative="1" as="geometry">
            <mxPoint x="27.57" y="760" as="sourcePoint" />
            <mxPoint x="27.57" y="585" as="targetPoint" />
          </mxGeometry>
        </mxCell>
        <mxCell id="jPVxcf8T9hYOkQwiWEO3-384" value="" style="endArrow=none;html=1;rounded=0;" parent="1" edge="1">
          <mxGeometry relative="1" as="geometry">
            <mxPoint x="30" y="760" as="sourcePoint" />
            <mxPoint x="120" y="760" as="targetPoint" />
          </mxGeometry>
        </mxCell>
        <mxCell id="jPVxcf8T9hYOkQwiWEO3-385" value="Es asignado a" style="shape=rhombus;perimeter=rhombusPerimeter;whiteSpace=wrap;html=1;align=center;" parent="1" vertex="1">
          <mxGeometry x="776" y="398" width="120" height="60" as="geometry" />
        </mxCell>
        <mxCell id="jPVxcf8T9hYOkQwiWEO3-386" value="" style="endArrow=none;html=1;rounded=0;exitX=0;exitY=0.571;exitDx=0;exitDy=0;exitPerimeter=0;" parent="1" source="jPVxcf8T9hYOkQwiWEO3-343" edge="1">
          <mxGeometry relative="1" as="geometry">
            <mxPoint x="1035.5" y="147" as="sourcePoint" />
            <mxPoint x="836" y="278" as="targetPoint" />
            <Array as="points" />
          </mxGeometry>
        </mxCell>
        <mxCell id="jPVxcf8T9hYOkQwiWEO3-387" value="" style="endArrow=none;html=1;rounded=0;exitX=0.5;exitY=0;exitDx=0;exitDy=0;" parent="1" source="jPVxcf8T9hYOkQwiWEO3-385" edge="1">
          <mxGeometry relative="1" as="geometry">
            <mxPoint x="824.5" y="380" as="sourcePoint" />
            <mxPoint x="836" y="278" as="targetPoint" />
            <Array as="points" />
          </mxGeometry>
        </mxCell>
        <mxCell id="jPVxcf8T9hYOkQwiWEO3-388" value="" style="endArrow=none;html=1;rounded=0;entryX=0.5;entryY=1;entryDx=0;entryDy=0;" parent="1" edge="1" target="jPVxcf8T9hYOkQwiWEO3-385">
          <mxGeometry relative="1" as="geometry">
            <mxPoint x="836" y="760" as="sourcePoint" />
            <mxPoint x="198.97" y="460" as="targetPoint" />
            <Array as="points" />
          </mxGeometry>
        </mxCell>
        <mxCell id="jPVxcf8T9hYOkQwiWEO3-389" value="1:1" style="text;html=1;align=center;verticalAlign=middle;resizable=0;points=[];autosize=1;strokeColor=none;fillColor=none;" parent="1" vertex="1">
          <mxGeometry x="776" y="378" width="40" height="30" as="geometry" />
        </mxCell>
        <mxCell id="jPVxcf8T9hYOkQwiWEO3-390" value="Otorga" style="shape=rhombus;perimeter=rhombusPerimeter;whiteSpace=wrap;html=1;align=center;" parent="1" vertex="1">
          <mxGeometry x="-700" y="-31" width="120" height="60" as="geometry" />
        </mxCell>
        <mxCell id="77sEpLNB9GmHhST0KVP2-4" value="" style="endArrow=none;html=1;rounded=0;exitX=0.5;exitY=1;exitDx=0;exitDy=0;" edge="1" parent="1" source="jPVxcf8T9hYOkQwiWEO3-390">
          <mxGeometry relative="1" as="geometry">
            <mxPoint x="-640.71" y="210" as="sourcePoint" />
            <mxPoint x="-641" y="410" as="targetPoint" />
            <Array as="points" />
          </mxGeometry>
        </mxCell>
        <mxCell id="77sEpLNB9GmHhST0KVP2-5" value="" style="endArrow=none;html=1;rounded=0;exitX=1;exitY=0.5;exitDx=0;exitDy=0;" edge="1" parent="1">
          <mxGeometry relative="1" as="geometry">
            <mxPoint x="-577.9999999999998" y="-1" as="sourcePoint" />
            <mxPoint x="-50" as="targetPoint" />
            <Array as="points" />
          </mxGeometry>
        </mxCell>
        <mxCell id="77sEpLNB9GmHhST0KVP2-7" value="" style="endArrow=none;html=1;rounded=0;" edge="1" parent="1">
          <mxGeometry relative="1" as="geometry">
            <mxPoint x="-50" y="100" as="sourcePoint" />
            <mxPoint x="-50" as="targetPoint" />
            <Array as="points" />
          </mxGeometry>
        </mxCell>
        <mxCell id="77sEpLNB9GmHhST0KVP2-8" value="" style="endArrow=none;html=1;rounded=0;exitX=0.5;exitY=1;exitDx=0;exitDy=0;entryX=0.5;entryY=0;entryDx=0;entryDy=0;" edge="1" parent="1" target="77sEpLNB9GmHhST0KVP2-10">
          <mxGeometry relative="1" as="geometry">
            <mxPoint x="-639.71" y="485" as="sourcePoint" />
            <mxPoint x="-640" y="570" as="targetPoint" />
            <Array as="points" />
          </mxGeometry>
        </mxCell>
        <mxCell id="77sEpLNB9GmHhST0KVP2-9" value="1:M" style="text;html=1;align=center;verticalAlign=middle;resizable=0;points=[];autosize=1;strokeColor=none;fillColor=none;" vertex="1" parent="1">
          <mxGeometry x="-720" y="-50" width="40" height="30" as="geometry" />
        </mxCell>
        <mxCell id="77sEpLNB9GmHhST0KVP2-10" value="Recibe" style="shape=rhombus;perimeter=rhombusPerimeter;whiteSpace=wrap;html=1;align=center;" vertex="1" parent="1">
          <mxGeometry x="-700" y="580" width="120" height="60" as="geometry" />
        </mxCell>
        <mxCell id="77sEpLNB9GmHhST0KVP2-11" value="" style="endArrow=none;html=1;rounded=0;entryX=1;entryY=0.5;entryDx=0;entryDy=0;" edge="1" parent="1">
          <mxGeometry relative="1" as="geometry">
            <mxPoint x="-40" y="610" as="sourcePoint" />
            <mxPoint x="-578.9999999999998" y="610" as="targetPoint" />
            <Array as="points" />
          </mxGeometry>
        </mxCell>
        <mxCell id="77sEpLNB9GmHhST0KVP2-12" value="" style="endArrow=none;html=1;rounded=0;" edge="1" parent="1">
          <mxGeometry relative="1" as="geometry">
            <mxPoint x="-41.43" y="610" as="sourcePoint" />
            <mxPoint x="-41" y="460" as="targetPoint" />
          </mxGeometry>
        </mxCell>
        <mxCell id="77sEpLNB9GmHhST0KVP2-13" value="1:M" style="text;html=1;align=center;verticalAlign=middle;resizable=0;points=[];autosize=1;strokeColor=none;fillColor=none;" vertex="1" parent="1">
          <mxGeometry x="-700" y="560" width="40" height="30" as="geometry" />
        </mxCell>
        <mxCell id="77sEpLNB9GmHhST0KVP2-14" value="" style="endArrow=none;html=1;rounded=0;" edge="1" parent="1">
          <mxGeometry relative="1" as="geometry">
            <mxPoint x="249.5" y="760" as="sourcePoint" />
            <mxPoint x="840" y="760" as="targetPoint" />
          </mxGeometry>
        </mxCell>
        <mxCell id="77sEpLNB9GmHhST0KVP2-16" value="" style="endArrow=none;html=1;rounded=0;exitX=0.75;exitY=0;exitDx=0;exitDy=0;" edge="1" parent="1" source="jPVxcf8T9hYOkQwiWEO3-146">
          <mxGeometry relative="1" as="geometry">
            <mxPoint x="-40" y="110" as="sourcePoint" />
            <mxPoint x="20" y="40" as="targetPoint" />
            <Array as="points" />
          </mxGeometry>
        </mxCell>
        <mxCell id="77sEpLNB9GmHhST0KVP2-17" value="Inicia" style="shape=rhombus;perimeter=rhombusPerimeter;whiteSpace=wrap;html=1;align=center;" vertex="1" parent="1">
          <mxGeometry x="300" y="305" width="120" height="60" as="geometry" />
        </mxCell>
        <mxCell id="77sEpLNB9GmHhST0KVP2-18" value="Responde" style="shape=rhombus;perimeter=rhombusPerimeter;whiteSpace=wrap;html=1;align=center;" vertex="1" parent="1">
          <mxGeometry x="129" y="400" width="120" height="60" as="geometry" />
        </mxCell>
        <mxCell id="77sEpLNB9GmHhST0KVP2-19" value="" style="endArrow=none;html=1;rounded=0;" edge="1" parent="1">
          <mxGeometry relative="1" as="geometry">
            <mxPoint x="301" y="470" as="sourcePoint" />
            <mxPoint x="301" y="430" as="targetPoint" />
          </mxGeometry>
        </mxCell>
        <mxCell id="77sEpLNB9GmHhST0KVP2-20" value="" style="endArrow=none;html=1;rounded=0;" edge="1" parent="1">
          <mxGeometry relative="1" as="geometry">
            <mxPoint x="301.5" y="429.29" as="sourcePoint" />
            <mxPoint x="251.5" y="429.29" as="targetPoint" />
          </mxGeometry>
        </mxCell>
        <mxCell id="77sEpLNB9GmHhST0KVP2-21" value="" style="endArrow=none;html=1;rounded=0;entryX=0.5;entryY=1;entryDx=0;entryDy=0;" edge="1" parent="1" target="77sEpLNB9GmHhST0KVP2-17">
          <mxGeometry relative="1" as="geometry">
            <mxPoint x="360" y="470" as="sourcePoint" />
            <mxPoint x="311" y="450" as="targetPoint" />
          </mxGeometry>
        </mxCell>
        <mxCell id="77sEpLNB9GmHhST0KVP2-22" value="" style="endArrow=none;html=1;rounded=0;entryX=1;entryY=0.5;entryDx=0;entryDy=0;exitX=0;exitY=0.5;exitDx=0;exitDy=0;" edge="1" parent="1" source="77sEpLNB9GmHhST0KVP2-18" target="jPVxcf8T9hYOkQwiWEO3-223">
          <mxGeometry relative="1" as="geometry">
            <mxPoint x="129" y="437.29" as="sourcePoint" />
            <mxPoint x="79" y="437.29" as="targetPoint" />
          </mxGeometry>
        </mxCell>
        <mxCell id="77sEpLNB9GmHhST0KVP2-24" value="1:M" style="text;html=1;align=center;verticalAlign=middle;resizable=0;points=[];autosize=1;strokeColor=none;fillColor=none;" vertex="1" parent="1">
          <mxGeometry x="129" y="378" width="40" height="30" as="geometry" />
        </mxCell>
        <mxCell id="77sEpLNB9GmHhST0KVP2-25" value="" style="endArrow=none;html=1;rounded=0;" edge="1" parent="1">
          <mxGeometry relative="1" as="geometry">
            <mxPoint x="360" y="305" as="sourcePoint" />
            <mxPoint x="360" y="160" as="targetPoint" />
          </mxGeometry>
        </mxCell>
        <mxCell id="77sEpLNB9GmHhST0KVP2-26" value="" style="endArrow=none;html=1;rounded=0;entryX=1;entryY=0.75;entryDx=0;entryDy=0;" edge="1" parent="1" target="jPVxcf8T9hYOkQwiWEO3-146">
          <mxGeometry relative="1" as="geometry">
            <mxPoint x="360" y="160" as="sourcePoint" />
            <mxPoint x="370" y="170" as="targetPoint" />
          </mxGeometry>
        </mxCell>
        <mxCell id="77sEpLNB9GmHhST0KVP2-27" value="1:M" style="text;html=1;align=center;verticalAlign=middle;resizable=0;points=[];autosize=1;strokeColor=none;fillColor=none;" vertex="1" parent="1">
          <mxGeometry x="291" y="280" width="40" height="30" as="geometry" />
        </mxCell>
        <mxCell id="77sEpLNB9GmHhST0KVP2-28" value="Contiene" style="shape=rhombus;perimeter=rhombusPerimeter;whiteSpace=wrap;html=1;align=center;" vertex="1" parent="1">
          <mxGeometry x="500" y="485" width="120" height="60" as="geometry" />
        </mxCell>
        <mxCell id="77sEpLNB9GmHhST0KVP2-29" value="Envia" style="shape=rhombus;perimeter=rhombusPerimeter;whiteSpace=wrap;html=1;align=center;" vertex="1" parent="1">
          <mxGeometry x="460" y="95" width="120" height="60" as="geometry" />
        </mxCell>
        <mxCell id="77sEpLNB9GmHhST0KVP2-30" value="" style="endArrow=none;html=1;rounded=0;entryX=0.5;entryY=1;entryDx=0;entryDy=0;" edge="1" parent="1" target="77sEpLNB9GmHhST0KVP2-29">
          <mxGeometry relative="1" as="geometry">
            <mxPoint x="520" y="220" as="sourcePoint" />
            <mxPoint x="370" y="170" as="targetPoint" />
          </mxGeometry>
        </mxCell>
        <mxCell id="77sEpLNB9GmHhST0KVP2-31" value="" style="endArrow=none;html=1;rounded=0;exitX=0.5;exitY=0;exitDx=0;exitDy=0;" edge="1" parent="1" source="77sEpLNB9GmHhST0KVP2-28">
          <mxGeometry relative="1" as="geometry">
            <mxPoint x="370" y="480" as="sourcePoint" />
            <mxPoint x="560" y="310" as="targetPoint" />
          </mxGeometry>
        </mxCell>
        <mxCell id="77sEpLNB9GmHhST0KVP2-32" value="" style="endArrow=none;html=1;rounded=0;entryX=0;entryY=0.5;entryDx=0;entryDy=0;exitX=1;exitY=0.5;exitDx=0;exitDy=0;" edge="1" parent="1" source="jPVxcf8T9hYOkQwiWEO3-321" target="77sEpLNB9GmHhST0KVP2-28">
          <mxGeometry relative="1" as="geometry">
            <mxPoint x="370" y="480" as="sourcePoint" />
            <mxPoint x="370" y="375" as="targetPoint" />
          </mxGeometry>
        </mxCell>
        <mxCell id="77sEpLNB9GmHhST0KVP2-33" value="" style="endArrow=none;html=1;rounded=0;entryX=1;entryY=0.25;entryDx=0;entryDy=0;exitX=0;exitY=0.5;exitDx=0;exitDy=0;" edge="1" parent="1" source="77sEpLNB9GmHhST0KVP2-29" target="jPVxcf8T9hYOkQwiWEO3-146">
          <mxGeometry relative="1" as="geometry">
            <mxPoint x="370" y="170" as="sourcePoint" />
            <mxPoint x="60" y="168" as="targetPoint" />
          </mxGeometry>
        </mxCell>
        <mxCell id="77sEpLNB9GmHhST0KVP2-34" value="1:M" style="text;html=1;align=center;verticalAlign=middle;resizable=0;points=[];autosize=1;strokeColor=none;fillColor=none;" vertex="1" parent="1">
          <mxGeometry x="450" y="75" width="40" height="30" as="geometry" />
        </mxCell>
        <mxCell id="77sEpLNB9GmHhST0KVP2-35" value="1:M" style="text;html=1;align=center;verticalAlign=middle;resizable=0;points=[];autosize=1;strokeColor=none;fillColor=none;" vertex="1" parent="1">
          <mxGeometry x="500" y="465" width="40" height="30" as="geometry" />
        </mxCell>
        <mxCell id="77sEpLNB9GmHhST0KVP2-36" value="" style="endArrow=none;html=1;rounded=0;entryX=0.5;entryY=1;entryDx=0;entryDy=0;" edge="1" parent="1" target="jPVxcf8T9hYOkQwiWEO3-304">
          <mxGeometry relative="1" as="geometry">
            <mxPoint y="-257.14285714285717" as="sourcePoint" />
            <mxPoint x="15" y="-532" as="targetPoint" />
            <Array as="points" />
          </mxGeometry>
        </mxCell>
        <mxCell id="77sEpLNB9GmHhST0KVP2-37" value="Recibe" style="shape=rhombus;perimeter=rhombusPerimeter;whiteSpace=wrap;html=1;align=center;" vertex="1" parent="1">
          <mxGeometry x="-60" y="-260" width="120" height="60" as="geometry" />
        </mxCell>
        <mxCell id="77sEpLNB9GmHhST0KVP2-38" value="1:M" style="text;html=1;align=center;verticalAlign=middle;resizable=0;points=[];autosize=1;strokeColor=none;fillColor=none;" vertex="1" parent="1">
          <mxGeometry x="-60" y="-280" width="40" height="30" as="geometry" />
        </mxCell>
        <mxCell id="77sEpLNB9GmHhST0KVP2-39" value="" style="endArrow=none;html=1;rounded=0;entryX=0.5;entryY=1;entryDx=0;entryDy=0;" edge="1" parent="1" target="77sEpLNB9GmHhST0KVP2-37">
          <mxGeometry relative="1" as="geometry">
            <mxPoint y="100" as="sourcePoint" />
            <mxPoint x="10" y="-320" as="targetPoint" />
            <Array as="points" />
          </mxGeometry>
        </mxCell>
      </root>
    </mxGraphModel>
  </diagram>
</mxfile>
